<?xml version="1.0" encoding="iso-8859-1"?>
<!-- Generator: Adobe Illustrator 19.0.0, SVG Export Plug-In . SVG Version: 6.00 Build 0)  -->
<svg version="1.1" id="Capa_1" xmlns="http://www.w3.org/2000/svg" xmlns:xlink="http://www.w3.org/1999/xlink" x="0px" y="0px"
	 viewBox="0 0 326.913 326.913" style="enable-background:new 0 0 326.913 326.913;" xml:space="preserve">
<g id="XMLID_90_">
	<circle id="XMLID_91_" style="fill:#98C79C;" cx="187.456" cy="213.629" r="16"/>
	<circle id="XMLID_92_" style="fill:#ABD1AD;" cx="139.456" cy="245.629" r="16"/>
	<circle id="XMLID_93_" style="fill:#ABD1AD;" cx="145.456" cy="207.629" r="8"/>
	<circle id="XMLID_102_" style="fill:#98C79C;" cx="179.456" cy="253.629" r="8"/>
	<path id="XMLID_47_" style="fill:#ABD1AD;" d="M63.887,200.946L63.887,200.946c-1.034-7.418,4.141-14.271,11.56-15.305
		l32.767-4.567c0.989-0.138,1.903,0.552,2.041,1.541l3.245,23.283c0.138,0.989-0.552,1.903-1.541,2.041l-32.767,4.567
		C71.773,213.54,64.921,208.365,63.887,200.946z"/>
	<path id="XMLID_46_" style="fill:#ABD1AD;" d="M73.649,231.519L73.649,231.519c-1.034-7.418,4.141-14.271,11.56-15.305
		l32.767-4.567c0.989-0.138,1.903,0.552,2.041,1.541l3.245,23.283c0.138,0.989-0.552,1.903-1.541,2.041l-32.767,4.567
		C81.535,244.113,74.683,238.937,73.649,231.519z"/>
	<path id="XMLID_45_" style="fill:#ABD1AD;" d="M152.001,326.913h-5.102c-9.157,0-16.581-7.424-16.581-16.581v-51.773h38.264v51.773
		C168.582,319.489,161.158,326.913,152.001,326.913z"/>
	<path id="XMLID_44_" style="fill:#ABD1AD;" d="M108.344,313.586v-4.1c0-7.36,5.966-13.326,13.326-13.326h27.052
		c8.04,0,14.558,6.518,14.558,14.558v1.637c0,8.04-6.518,14.558-14.558,14.558H121.67
		C114.31,326.913,108.344,320.946,108.344,313.586z"/>
	<path id="XMLID_43_" style="fill:#98C79C;" d="M217.175,326.913h-5.102c-9.157,0-16.581-7.424-16.581-16.581v-51.773h38.264v51.773
		C233.756,319.489,226.332,326.913,217.175,326.913z"/>
	<path id="XMLID_42_" style="fill:#98C79C;" d="M173.518,313.586v-4.1c0-7.36,5.966-13.326,13.326-13.326h27.052
		c8.04,0,14.558,6.518,14.558,14.558v1.637c0,8.04-6.518,14.558-14.558,14.558h-27.052
		C179.484,326.913,173.518,320.946,173.518,313.586z"/>
	<path id="XMLID_103_" style="fill:#ABD1AD;" d="M293.518,196.57c0-60.871-31.84-74.292-31.84-74.292s28.173,68.352-38.16,69.352
		c-41.141,0.62-62.662-25.409-60-70c3.192-53.465,1-112.333-40-120c-63.422-11.859-88.235,44.037-90,70
		c-2.31,33.979,28.433,52.114,50,50c18.042-1.769,31.218-6.598,30,0c-4.128,22.364-10,26.745-10,90c0,73.96,59.059,84.191,60,71.494
		c8.024,1.991,30.424,3.37,40,0.719c0.933,12.878,38.211-4.345,48.74-11.527C274.518,257.129,293.518,235.892,293.518,196.57z"/>
	<circle id="XMLID_104_" style="fill:#272525;" cx="96.173" cy="46.629" r="15"/>
	<path id="XMLID_105_" style="fill:#98C79C;" d="M163.456,258.559v63.742c3.153-3.018,5.125-7.26,5.125-11.969v-51.773H163.456z"/>
	<g id="XMLID_106_">
		<path id="XMLID_107_" style="fill:#98C79C;" d="M163.456,65.953v57.095c0.023-0.475,0.033-0.94,0.062-1.419
			C164.634,102.923,165.089,83.558,163.456,65.953z"/>
		<path id="XMLID_108_" style="fill:#98C79C;" d="M261.678,122.277c0,0,28.173,68.352-38.16,69.352
			c-37,0.558-58.119-20.449-60.062-57.117v149.023c0.025-0.136,0.051-0.271,0.062-0.413c8.024,1.991,30.424,3.37,40,0.719
			c0.933,12.878,38.211-4.345,48.74-11.527c22.26-15.185,41.26-36.423,41.26-75.745
			C293.518,135.699,261.678,122.277,261.678,122.277z"/>
	</g>
	<circle id="XMLID_109_" style="fill:#F6D563;" cx="187.456" cy="213.629" r="16"/>
	<circle id="XMLID_34_" style="fill:#F6D563;" cx="274.459" cy="220.626" r="11"/>
	<circle id="XMLID_110_" style="fill:#FFE477;" cx="145.456" cy="207.629" r="8"/>
	<circle id="XMLID_138_" style="fill:#F6D563;" cx="179.456" cy="253.629" r="8"/>
	<circle id="XMLID_3_" style="fill:#F6D563;" cx="281.476" cy="200.803" r="4.698"/>
</g>
<g>
</g>
<g>
</g>
<g>
</g>
<g>
</g>
<g>
</g>
<g>
</g>
<g>
</g>
<g>
</g>
<g>
</g>
<g>
</g>
<g>
</g>
<g>
</g>
<g>
</g>
<g>
</g>
<g>
</g>
</svg>
