<?xml version="1.0" encoding="iso-8859-1"?>
<!-- Generator: Adobe Illustrator 19.0.0, SVG Export Plug-In . SVG Version: 6.00 Build 0)  -->
<svg version="1.1" id="Capa_1" xmlns="http://www.w3.org/2000/svg" xmlns:xlink="http://www.w3.org/1999/xlink" x="0px" y="0px"
	 viewBox="0 0 381.021 381.021" style="enable-background:new 0 0 381.021 381.021;" xml:space="preserve">
<g id="XMLID_169_">
	<path id="XMLID_47_" style="fill:#A4C867;" d="M195.179,282.829h-3.393c-6.09,0-11.028-4.937-11.028-11.028l-0.249-43.07h25.449
		l0.249,43.07C206.207,277.891,201.27,282.829,195.179,282.829z"/>
	<path id="XMLID_46_" style="fill:#9BC35C;" d="M229.859,280.102l-3.091,1.401c-5.547,2.514-12.082,0.055-14.596-5.493l-14.462-40
		l23.179-10.504l14.462,40C237.866,271.053,235.407,277.588,229.859,280.102z"/>
	<path id="XMLID_45_" style="fill:#A4C867;" d="M125.39,282.56l-3.263-0.93c-5.857-1.669-9.252-7.771-7.583-13.628l9.188-41.752
		l24.474,6.975l-9.188,41.752C137.349,280.835,131.248,284.23,125.39,282.56z"/>
	<path id="XMLID_44_" style="fill:#A4C867;" d="M159.482,282.829h-3.393c-6.09,0-11.028-4.937-11.028-11.028l-0.249-43.07h25.449
		l0.249,43.07C170.51,277.891,165.573,282.829,159.482,282.829z"/>
	<path id="XMLID_197_" style="fill:#A4C867;" d="M380.71,246.435c-0.89,8.03-4.92,15.78-10.2,21.97
		c-11.85,13.88-22.52,17.11-47.64,17.11c-35.57,0-71.41-26.33-80.13-31.66c-12.65-7.72-43.8,1.58-84.49-6.54
		c-10.35-2.07-37.83-10.15-41.39-11.44c-23.11-9.18-38.89-25.69-47.49-49.02c-7.26-19.75-1.47-49.1-37.71-49.1
		c-17.48,0-31.66-9.45-31.66-21.1c0-11.66,14.19-20.46,31.66-21.11c23.57-0.88,38.15,13.34,42.22,21.11
		c7.28,13.92,14.28,28.1,21.11,42.21c8.67,17.94,15.7,13.8,22.68,8.07c0.09-0.07,0.19-0.14,0.28-0.22
		c5.83-4.81,11.39-9.13,17.26-12.85c0.68-0.44,1.38-0.87,2.08-1.28c1.58-0.96,3.19-1.87,4.84-2.72c3.97-2.1,8.15-3.92,12.68-5.45
		c0.73-0.25,1.48-0.49,2.23-0.71v-0.01c0.04-0.01,0.07-0.02,0.11-0.03c0.19-0.06,0.38-0.12,0.57-0.17c0.78-0.24,1.58-0.47,2.39-0.69
		c1.25-0.33,2.5-0.64,3.76-0.93c4.93-1.13,9.95-1.89,14.99-2.24c0.52-0.03,1.04-0.06,1.57-0.08c6.77-0.36,13.57,0.05,20.21,1.33
		c0.45,0.08,0.9,0.17,1.36,0.27c4.43,0.94,8.79,2.27,13.02,4.03c1.9,0.79,3.76,1.66,5.58,2.59l2.46,1.31
		c5.28,2.92,10.25,6.4,14.92,10.34c1.25,1.03,2.48,2.11,3.69,3.22c0.88,0.8,1.75,1.62,2.61,2.45c4.92,4.79,9.48,10.04,13.73,15.56
		c10.01,12.99,18.25,27.5,25.19,41.13c7.94,15.55,14.73,34.54,30.52,43.97c14.12,8.45,32.98,7.53,45.04-4.16
		c20.36-19.74,11.04-44.01,11.39-46.82C371.08,207.365,383.09,224.755,380.71,246.435z"/>
	<path id="XMLID_221_" style="fill:#9BC35C;" d="M380.71,246.435c-0.89,8.03-4.92,15.78-10.2,21.97
		c-11.85,13.88-22.52,17.11-47.64,17.11c-35.57,0-71.41-26.33-80.13-31.66c-9.05-5.52-27.55-2.34-52.23-3.05v-111.2
		c8.39,0.54,16.68,2.32,24.51,5.58c8.37,3.49,16,8.38,22.97,14.23c7.37,6.17,14,13.42,20.01,21.22c0.01,0.01,0.01,0.02,0.01,0.02
		c10.01,12.99,18.25,27.5,25.19,41.13c7.94,15.55,14.73,34.54,30.52,43.97c14.12,8.45,32.98,7.53,45.04-4.16
		c20.36-19.74,11.04-44.01,11.39-46.82C371.08,207.365,383.09,224.755,380.71,246.435z"/>
	<path id="XMLID_222_" style="fill:#9BC35C;" d="M205.959,228.731H190.51v54.018c0.419,0.048,0.844,0.08,1.276,0.08h3.393
		c6.09,0,11.028-4.937,11.028-11.028L205.959,228.731z"/>
	<path id="XMLID_223_" style="fill:#ABD2B5;" d="M202.08,141.155c-0.19,1.81-0.44,3.6-0.76,5.33v0.01
		c-1.9,10.45-5.99,19.01-10.74,19.01s-8.84-8.56-10.74-19v-0.01c-0.4-2.22-0.71-4.53-0.9-6.86c0.52-0.03,1.04-0.06,1.57-0.08
		c6.77-0.36,13.57,0.05,20.21,1.33C201.17,140.965,201.62,141.055,202.08,141.155z"/>
	<path id="XMLID_224_" style="fill:#98C8A3;" d="M223.06,149.085c-0.43,2.3-0.96,4.5-1.59,6.54c-2.18,7.11-5.45,12.19-9.11,12.19
		c-5.09,0-9.44-9.85-11.12-21.32v-0.01c-0.27-1.83-0.47-3.71-0.6-5.6c0.45,0.08,0.9,0.17,1.36,0.27c4.43,0.94,8.79,2.27,13.02,4.03
		c1.9,0.79,3.76,1.66,5.58,2.59L223.06,149.085z"/>
	<path id="XMLID_225_" style="fill:#98C8A3;" d="M223.06,149.085c6.7,3.7,12.89,8.31,18.61,13.56c-2.18,7.46-5.54,12.86-9.31,12.86
		c-4.88,0-9.07-9.04-10.89-19.88c-0.43-2.55-0.73-5.19-0.87-7.85L223.06,149.085z"/>
	<path id="XMLID_226_" style="fill:#ABD2B5;" d="M180.43,139.555c-0.11,2.33-0.34,4.67-0.67,6.94v0.01
		c-1.69,11.46-6.03,21.31-11.12,21.31c-3.66,0-6.93-5.07-9.11-12.17c-1.08-3.52-1.89-7.54-2.34-11.69c-0.02-0.1-0.03-0.19-0.04-0.29
		c0.19-0.06,0.38-0.12,0.57-0.17c0.78-0.24,1.58-0.47,2.39-0.69c1.25-0.33,2.5-0.64,3.76-0.93c4.93-1.13,9.95-1.89,14.99-2.24
		C179.38,139.605,179.9,139.575,180.43,139.555z"/>
	<path id="XMLID_227_" style="fill:#ABD2B5;" d="M137.29,152.585c0.79,6.42,2.43,12.46,4.59,16.73c1.92,3.8,4.25,6.19,6.76,6.19
		c4.87,0,9.06-9.03,10.89-19.86c0.55-3.28,0.89-6.73,0.96-10.15c3.16,0.93,3.81-1.13,3.38-3.62c-1.26,0.29-2.51,0.6-3.76,0.93
		c-0.81,0.22-1.61,0.45-2.39,0.69c-0.34,0.05-0.6,0.11-0.68,0.2v0.01c-0.75,0.22-1.5,0.46-2.23,0.71
		c-4.53,1.53-8.71,3.35-12.68,5.45L137.29,152.585z"/>
	<path id="XMLID_228_" style="fill:#98C8A3;" d="M200.72,140.885c-3.37-0.65-6.782-1.073-10.21-1.288v25.9
		c0.023,0,0.046,0.008,0.07,0.008c4.75,0,8.84-8.56,10.74-19.01v-0.01c0.32-1.73,0.57-3.52,0.76-5.33
		C201.62,141.055,201.17,140.965,200.72,140.885z"/>
	<circle id="XMLID_229_" style="fill:#ABD2B5;" cx="120.51" cy="205.505" r="10"/>
	<circle id="XMLID_230_" style="fill:#98C8A3;" cx="250.51" cy="205.505" r="10"/>
	<circle id="XMLID_231_" style="fill:#98C8A3;" cx="235.51" cy="220.505" r="5"/>
	<circle id="XMLID_232_" style="fill:#272525;" cx="35.51" cy="110.505" r="5"/>
</g>
<g>
</g>
<g>
</g>
<g>
</g>
<g>
</g>
<g>
</g>
<g>
</g>
<g>
</g>
<g>
</g>
<g>
</g>
<g>
</g>
<g>
</g>
<g>
</g>
<g>
</g>
<g>
</g>
<g>
</g>
</svg>
