<?xml version="1.0" encoding="iso-8859-1"?>
<!-- Generator: Adobe Illustrator 19.0.0, SVG Export Plug-In . SVG Version: 6.00 Build 0)  -->
<svg version="1.1" id="Capa_1" xmlns="http://www.w3.org/2000/svg" xmlns:xlink="http://www.w3.org/1999/xlink" x="0px" y="0px"
	 viewBox="0 0 342.553 342.553" style="enable-background:new 0 0 342.553 342.553;" xml:space="preserve">
<g id="XMLID_445_">
	<path id="XMLID_44_" style="fill:#9BC35C;" d="M198.241,326.091h-4.014c-7.205,0-13.046-5.841-13.046-13.046v-52.276h30.105v52.276
		C211.286,320.25,205.446,326.091,198.241,326.091z"/>
	<path id="XMLID_43_" style="fill:#9BC35C;" d="M232.059,326.276h-4.014c-7.205,0-13.046-5.841-13.046-13.046v-52.276h30.105v52.276
		C245.105,320.436,239.264,326.276,232.059,326.276z"/>
	<path id="XMLID_42_" style="fill:#A4C867;" d="M106.77,325.773l-3.86-1.1c-6.929-1.975-10.945-9.193-8.971-16.122l11.164-50.716
		l28.953,8.251l-11.164,50.716C120.917,323.732,113.699,327.748,106.77,325.773z"/>
	<path id="XMLID_41_" style="fill:#A4C867;" d="M147.101,326.091h-4.014c-7.205,0-13.046-5.841-13.046-13.046v-52.276h30.105v52.276
		C160.146,320.25,154.305,326.091,147.101,326.091z"/>
	<path id="XMLID_40_" style="fill:#A4C867;" d="M340.537,169.234c-0.971,0-1.801,0.704-1.974,1.66
		c-8.703,48.042-23.015,50.894-46.01,50.383c-22.5-0.5-21.948-11-45.132-42.388c-52.502-71.081-86.68-41.718-113.676-39.499
		c-9.603,0.789-17.458-6.447-17.458-16.081l-1.182-47.031c0-26.332-9.149-60-46.016-60c-50.626,0-81.937,33-63.984,70
		c8.425,17.364,19.948,21,64.398,11.488c4.844-1.037,7.159,1.781,7.159,6.68c0,0-23.534,55.545-5.843,111.833
		c11.003,35.009,36.437,52.693,50.368,57.921c0.196,0.074,0.373,0.177,0.538,0.305c1.973,1.528,4.403,2.354,6.842,2.881l20.08,4.341
		c2.639,0.57,5.318,0.175,7.923-0.538c0.211-0.058,0.437-0.082,0.669-0.067c6.124,0.405,12.357,0.553,18.601,0.553
		c11.483,0,22.648-0.382,33.447-1.161c0.31-0.022,0.607,0.026,0.877,0.132c2.66,1.042,5.568,1.277,8.398,0.889l19.464-2.666
		c2.519-0.345,4.835-1.397,7.08-2.59c0.183-0.097,0.391-0.138,0.596-0.205c43.352-14.295,95.953-29.924,96.852-104.795
		C342.566,170.157,341.656,169.234,340.537,169.234L340.537,169.234z"/>
	<path id="XMLID_446_" style="fill:#FFE477;" d="M142.267,165.025c0,0-25.315-65.256,2.617-76.683
		c22.759-9.31,61.13,12.061,80.221,17.934c3.008,0.925-21.65,5.576-40,20c-24.557,19.302-9.085,50-9.085,50L142.267,165.025z"/>
	<path id="XMLID_447_" style="fill:#9BC35C;" d="M339.689,169.41c-0.613,0.257-1.014,0.865-1.133,1.518
		c-8.704,48.014-29.346,51.484-46.004,50.349c-14.667-1-21.948-11-45.132-42.388c-31.239-42.294-55.99-49.026-76.602-47.075v149.824
		c1.672,0.023,3.346,0.036,5.021,0.036c11.482,0,22.648-0.382,33.447-1.161c0.309-0.022,0.605,0.026,0.874,0.131
		c2.663,1.038,5.569,1.278,8.401,0.89l19.464-2.666c2.517-0.345,4.835-1.388,7.075-2.587c0.184-0.099,0.39-0.155,0.602-0.208
		c55.351-13.795,95.953-29.924,96.851-104.795C342.569,169.884,341.156,168.794,339.689,169.41z"/>
	<path id="XMLID_448_" style="fill:#F6D563;" d="M225.105,106.276c-12.888-3.965-34.56-14.982-54.286-18.865v87.131l5.201,1.734
		c0,0-15.472-30.698,9.085-50C203.455,111.853,228.113,107.202,225.105,106.276z"/>
	<circle id="XMLID_36_" style="fill:#FFE477;" cx="95.433" cy="206.363" r="12.327"/>
	<circle id="XMLID_35_" style="fill:#F6D563;" cx="233.145" cy="203.949" r="12.327"/>
	<circle id="XMLID_34_" style="fill:#FFE477;" cx="113.168" cy="228.032" r="9.421"/>
	<circle id="XMLID_33_" style="fill:#FFE477;" cx="120.24" cy="186.855" r="9.421"/>
	<circle id="XMLID_32_" style="fill:#F6D563;" cx="260.785" cy="226.31" r="10.033"/>
	<circle id="XMLID_449_" style="fill:#272525;" cx="55.819" cy="51.276" r="15"/>
</g>
<g>
</g>
<g>
</g>
<g>
</g>
<g>
</g>
<g>
</g>
<g>
</g>
<g>
</g>
<g>
</g>
<g>
</g>
<g>
</g>
<g>
</g>
<g>
</g>
<g>
</g>
<g>
</g>
<g>
</g>
</svg>
