<?xml version="1.0" encoding="iso-8859-1"?>
<!-- Generator: Adobe Illustrator 19.0.0, SVG Export Plug-In . SVG Version: 6.00 Build 0)  -->
<svg version="1.1" id="Capa_1" xmlns="http://www.w3.org/2000/svg" xmlns:xlink="http://www.w3.org/1999/xlink" x="0px" y="0px"
	 viewBox="0 0 360.617 360.617" style="enable-background:new 0 0 360.617 360.617;" xml:space="preserve">
<g id="XMLID_522_">
	<path id="XMLID_53_" style="fill:#A4C867;" d="M32.363,123.962L21.916,99.462c-2.11-4.949,1.928-10.327,7.269-9.68l26.441,3.202
		L32.363,123.962z"/>
	<path id="XMLID_523_" style="fill:#A4C867;" d="M359.626,199.989c0,0-6.34,20.33-36.32,14.03c-15.11-3.18-52.59-14.83-67.36-15.98
		c-46.18-3.58-47.4,22.85-47.4,32.85c0,5.79-33.46,4.4-83.37-6.09c-15.69-3.3-26.25-15.49-37.57-35.71
		c-1.48-2.63-17.14-28.48-17.14-28.48c-7.86-10.2-16.21-7.27-16.21-7.27s-17.99,8.11-27.52,12.46c-6.32,2.88-13.11,3.1-15.35-0.02
		c-4.06-5.67,7.04-15.35,10.26-17.05c2.89-1.53,2.13-5.3-1.06-4.56c0,0-12.23,7.41-13.81,7.44c-12.75,0.25-4.4-14.46,0-20
		c6.75-8.5,8.69-38.66,40-40c16.46-0.7,24.67,16.33,41.81,32.27c9.11,8.48,15.51,7.02,23.16,7.01c3.91,0,7.68,0.03,11.32,0.09
		c7.85,0.12,15.1,0.39,21.79,0.78c0.52,0.03,1.04,0.06,1.56,0.09c10.14,0.62,18.99,1.51,26.76,2.59c0.19,0.03,0.38,0.05,0.57,0.08
		c12.29,1.73,21.88,3.93,29.62,6.25c11.53,3.46,18.97,7.21,25.18,10.12c2.13,1,4.71,2.37,7.61,4.01
		c16.97,9.57,44.56,28.07,53.37,32.55c10.31,5.24,26.88,14.13,41.79,16.98c0,0,14.2,4.16,26.6-5.38
		C357.916,199.049,362.606,195.499,359.626,199.989z"/>
	<g id="XMLID_524_">
		<path id="XMLID_51_" style="fill:#A4C867;" d="M96.405,194.376c-0.909,1.035-8.937,10.623-11.007,28.292
			c-1.939,16.551,1.542,23.371,4.805,26.177c3.538,3.043,8.87,2.642,11.913-0.895c2.664-3.097,0.445-6.75,0.278-10.679
			c-1.15-27.024,15.928-25.551,16.153-25.82l-9.444-5.929L96.405,194.376z"/>
	</g>
	<g id="XMLID_525_">
		<path id="XMLID_49_" style="fill:#A4C867;" d="M79.9,172.126c-1.174,0.773-11.663,8.04-18.474,24.867
			c-6.379,15.763-4.795,23.415-2.343,27.057c2.66,3.95,8.015,4.995,11.964,2.337c3.458-2.328,2.262-6.522,3.158-10.434
			c6.168-26.904,22.576-20.841,22.87-21.045l-7.692-8.386L79.9,172.126z"/>
	</g>
	<g id="XMLID_526_">
		<rect id="XMLID_47_" x="151.213" y="210.888" style="fill:#A4C867;" width="24" height="60"/>
		<path id="XMLID_527_" style="fill:#A4C867;" d="M175.213,246.888h-28c-6.6,0-12,5.4-12,12c0,6.6,5.4,12,12,12h28V246.888z"/>
	</g>
	<g id="XMLID_530_">
		
			<rect id="XMLID_44_" x="189.921" y="205.047" transform="matrix(0.8321 -0.5547 0.5547 0.8321 -96.4683 151.4816)" style="fill:#9BC35C;" width="24" height="60"/>
		<path id="XMLID_43_" style="fill:#9BC35C;" d="M215.233,233.383l-23.297,15.532c-5.492,3.661-6.989,11.149-3.328,16.641
			c3.661,5.492,11.149,6.989,16.641,3.328l23.297-15.532L215.233,233.383z"/>
	</g>
	<path id="XMLID_531_" style="fill:#9BC35C;" d="M357.917,199.047c-12.398,9.537-26.597,5.382-26.597,5.382
		c-14.909-2.846-31.481-11.74-41.791-16.983c-10.311-5.24-46.362-29.697-60.983-36.559c-10.031-4.708-23.3-11.586-51.77-15.926
		v98.25c19.997,2.02,31.77,1.111,31.77-2.324c0-10,1.221-36.432,47.395-32.845c14.775,1.148,52.256,12.796,67.367,15.973
		c29.983,6.304,36.313-14.026,36.313-14.026C362.61,195.503,357.917,199.047,357.917,199.047z"/>
	<circle id="XMLID_40_" style="fill:#FFE477;" cx="160.429" cy="195.944" r="6.346"/>
	<circle id="XMLID_39_" style="fill:#FFE477;" cx="176.297" cy="181.129" r="9.518"/>
	<circle id="XMLID_38_" style="fill:#F6D563;" cx="190.429" cy="205.466" r="6.346"/>
	<path id="XMLID_532_" style="fill:#F6D563;" d="M178.326,171.83c-0.519-0.113-1.036-0.17-1.55-0.197v18.994
		c4.186-0.209,7.884-3.177,8.82-7.469C186.717,178.022,183.462,172.95,178.326,171.83z"/>
	<path id="XMLID_533_" d="M32.363,111.962c-3.309,0-6,2.691-6,6s2.691,6,6,6s6-2.691,6-6S35.672,111.962,32.363,111.962z"/>
	<path id="XMLID_534_" style="fill:#FFE477;" d="M203.366,140.769c0,0.01,0,0.01,0,0.01c-0.06,0.14-0.12,0.28-0.17,0.42
		c-0.13,0.33-0.27,0.65-0.4,0.97c-0.29,0.68-0.58,1.33-0.88,1.97c-0.12,0.27-0.25,0.53-0.38,0.8c-0.17,0.36-0.35,0.71-0.53,1.05
		c-0.53,1.03-1.08,2.01-1.66,2.91c-0.18,0.3-0.38,0.59-0.57,0.88c-0.58,0.85-1.17,1.64-1.79,2.35c-0.15,0.17-0.3,0.34-0.45,0.5
		c-0.14,0.16-0.29,0.32-0.45,0.47c-0.19,0.19-0.38,0.38-0.58,0.56c-0.58,0.54-1.17,1-1.78,1.39c-0.15,0.09-0.29,0.18-0.43,0.26
		c-0.66,0.38-1.33,0.67-2.01,0.86c-0.1,0.03-0.21,0.06-0.32,0.08c-0.24,0.06-0.49,0.1-0.73,0.13c-0.12,0.02-0.25,0.03-0.38,0.04
		c-0.16,0.01-0.33,0.02-0.5,0.02c-0.04,0-0.08-0.01-0.12-0.01c-3.17-0.06-6.16-2.27-8.85-6c-2.68-3.74-5.04-8.99-6.95-15.12
		c-0.09-0.29-0.18-0.58-0.26-0.87c0.19,0.03,0.38,0.05,0.57,0.08C186.036,136.249,195.626,138.449,203.366,140.769z"/>
	<path id="XMLID_535_" style="fill:#F6D563;" d="M236.156,154.899c-3.75,9.98-8.81,16.71-14.41,16.71
		c-7.95,0-14.87-13.65-18.38-30.83c0,0,0,0,0-0.01c11.53,3.46,18.97,7.21,25.18,10.12
		C230.676,151.889,233.256,153.259,236.156,154.899z"/>
	<path id="XMLID_536_" style="fill:#FFE477;" d="M173.746,134.519c-0.1,0.27-0.2,0.53-0.31,0.79c-3.65,8.85-8.4,14.69-13.6,14.69
		c-5.48,0-10.45-6.45-14.17-16.05c-0.28-0.71-0.55-1.44-0.81-2.19c0.52,0.03,1.04,0.06,1.56,0.09c10.14,0.62,18.99,1.51,26.76,2.59
		C173.366,134.469,173.556,134.489,173.746,134.519z"/>
	<path id="XMLID_782_" style="fill:#FFE477;" d="M146.416,131.849c-0.24,0.72-0.49,1.42-0.75,2.1c-2.82,7.36-6.6,12.32-10.77,12.32
		c-4.71,0-8.94-6.33-11.83-15.29c7.85,0.12,15.1,0.39,21.79,0.78C145.376,131.789,145.896,131.819,146.416,131.849z"/>
	<path id="XMLID_783_" style="fill:#F6D563;" d="M176.776,134.965v9.12c1.121,2.411,2.328,4.555,3.61,6.344
		c2.69,3.73,5.68,5.94,8.85,6c0.04,0,0.08,0.01,0.12,0.01c0.17,0,0.34-0.01,0.5-0.02c0.13-0.01,0.26-0.02,0.38-0.04
		c0.24-0.03,0.49-0.07,0.73-0.13c0.11-0.02,0.22-0.05,0.32-0.08c0.68-0.19,1.35-0.48,2.01-0.86c0.14-0.08,0.28-0.17,0.43-0.26
		c0.61-0.39,1.2-0.85,1.78-1.39c0.2-0.18,0.39-0.37,0.58-0.56c0.16-0.15,0.31-0.31,0.45-0.47c0.15-0.16,0.3-0.33,0.45-0.5
		c0.62-0.71,1.21-1.5,1.79-2.35c0.19-0.29,0.39-0.58,0.57-0.88c0.58-0.9,1.13-1.88,1.66-2.91c0.18-0.34,0.36-0.69,0.53-1.05
		c0.13-0.27,0.26-0.53,0.38-0.8c0.3-0.64,0.59-1.29,0.88-1.97c0.13-0.32,0.27-0.64,0.4-0.97c0.05-0.14,0.11-0.28,0.17-0.42
		c0,0,0,0,0-0.01C196.276,138.643,187.626,136.62,176.776,134.965z"/>
</g>
<g>
</g>
<g>
</g>
<g>
</g>
<g>
</g>
<g>
</g>
<g>
</g>
<g>
</g>
<g>
</g>
<g>
</g>
<g>
</g>
<g>
</g>
<g>
</g>
<g>
</g>
<g>
</g>
<g>
</g>
</svg>
