<?xml version="1.0" encoding="iso-8859-1"?>
<!-- Generator: Adobe Illustrator 19.0.0, SVG Export Plug-In . SVG Version: 6.00 Build 0)  -->
<svg version="1.1" id="Capa_1" xmlns="http://www.w3.org/2000/svg" xmlns:xlink="http://www.w3.org/1999/xlink" x="0px" y="0px"
	 viewBox="0 0 387.511 387.511" style="enable-background:new 0 0 387.511 387.511;" xml:space="preserve">
<g id="XMLID_905_">
	<path id="XMLID_45_" style="fill:#ABD1AD;" d="M157.225,183.017l18.981,51.49c0,0-8.52,8.489-13.105,12.362
		c-3.609,3.048-7.305,4.953-8.189,11.847l-0.367,2.864l13.374,2.08l19.662-13.64l6.73-63.428L157.225,183.017z"/>
	<path id="XMLID_44_" style="fill:#ABD1AD;" d="M176.746,192.734l43.344,38.866c0,0-3.296,10.883-5.426,16.115
		c-1.676,4.119-4.015,7.246-1.283,13.766l1.135,2.708l13.052-3.273l10.651-19.78l-26.4-59.444L176.746,192.734z"/>
	<path id="XMLID_43_" style="fill:#ABD1AD;" d="M90.64,175.705l-12.065,34.698c0,0-7.477,1.601-11.217,2.085
		c-2.944,0.381-5.462,0.109-8.691,3.543l-1.341,1.427l5.452,5.86l14.828-0.461l29.048-32.094L90.64,175.705z"/>
	<path id="XMLID_42_" style="fill:#ABD1AD;" d="M99.184,185.027l12.227,34.641c0,0-4.843,5.917-7.463,8.629
		c-2.062,2.134-4.2,3.494-4.579,8.193l-0.158,1.952l7.916,1.176l11.298-9.614l2.668-43.205L99.184,185.027z"/>
	<path id="XMLID_40_" style="fill:#ABD1AD;" d="M20.679,163.537c8.536,3.388,17.804-4.638,26.808-6.381
		c4.773-0.92,9.65-1.13,14.35,1.92c2.165,1.406,11.713,4.837,12.499,5.064c0.34,0.097,0.696,0.179,1.054,0.241
		c0.575,0.109,1.211,0.216,1.396,0.274c0.123,0.022,0.229,0.059,0.352,0.082c4.954,1.076,14.484,18.699,18.302,21.517
		c3.49,2.569,5.772,5.719,4.14,10.269c-0.62,1.752,10.897,0.791,12.353-0.467c0.93-0.811,0.87-2.741,0.98-4.646
		c0.043-0.871,0.871-1.487,1.743-1.383c3.141,0.393,6.289,0.658,9.448,1.003c6.009,0.972,30.664,20.332,72.986,22.438
		c46.777,2.328,42.242-18.739,88.783-29.69c8.913-2.097,61.339-12.595,76.954-12.819c1.28,0.032,33.705-4.74,22.23-6.797
		c-9.958-1.777-54.598-6.55-66.995-5.212c-13.388,1.461-26.794,2.625-40.217,3.819c-2.736,0.24-5.485-1.111-8.189-1.514
		c-5.998-0.863-78.195-36.619-138.423-27.607c-4.411,0.66-39.259,10.012-40.727,10.284c-6.458,1.137-12.942,0.954-18.971-2.118
		c-3.922-2.01-8.339-3.479-11.563-6.316c-4.662-4.114-9.261-7.896-15.048-10.499c-7.53-3.395-16.204-1.371-21.922,3.744
		C20.055,131.395-25.73,145.116,20.679,163.537z"/>
	<path id="XMLID_39_" style="fill:#ABD1AD;" d="M157.225,183.017l18.981,51.49c0,0-8.52,8.489-13.105,12.362
		c-3.609,3.048-7.305,4.953-8.189,11.847l-0.367,2.864l13.374,2.08l19.662-13.64l6.73-63.428L157.225,183.017z"/>
	<path id="XMLID_906_" style="fill:#98C79C;" d="M211.819,181.692l-18.063,5.687v20.607l26.334,23.614
		c0,0-3.296,10.883-5.426,16.115c-1.676,4.119-4.015,7.246-1.283,13.766l1.135,2.708l13.052-3.273l10.651-19.781L211.819,181.692z"
		/>
	<path id="XMLID_907_" style="fill:#98C79C;" d="M385.057,164.159c-9.958-1.778-54.598-6.551-66.995-5.213
		c-13.388,1.461-26.794,2.625-40.217,3.819c-2.736,0.24-5.485-1.111-8.189-1.513c-3.958-0.57-36.749-16.333-75.901-24.4v76.403
		c1.101,0.08,2.208,0.154,3.335,0.21c46.777,2.328,42.242-18.739,88.783-29.69c8.913-2.097,61.34-12.595,76.954-12.819
		C364.107,170.988,396.532,166.217,385.057,164.159z"/>
	<circle id="XMLID_36_" style="fill:#F6D563;" cx="241.698" cy="185.812" r="7.942"/>
	<circle id="XMLID_35_" style="fill:#FFE477;" cx="121.569" cy="165.177" r="7.942"/>
	<circle id="XMLID_34_" style="fill:#FFE477;" cx="135.338" cy="184.314" r="7.851"/>
	<circle id="XMLID_33_" style="fill:#F6D563;" cx="264.219" cy="176.482" r="4.31"/>
	<circle id="XMLID_32_" style="fill:#FFE477;" cx="149.445" cy="169.445" r="4.31"/>
	<path id="XMLID_908_" d="M33.755,131.755c-3.309,0-6,2.691-6,6s2.691,6,6,6s6-2.691,6-6S37.064,131.755,33.755,131.755z"/>
</g>
<g>
</g>
<g>
</g>
<g>
</g>
<g>
</g>
<g>
</g>
<g>
</g>
<g>
</g>
<g>
</g>
<g>
</g>
<g>
</g>
<g>
</g>
<g>
</g>
<g>
</g>
<g>
</g>
<g>
</g>
</svg>
