<?xml version="1.0" encoding="iso-8859-1"?>
<!-- Generator: Adobe Illustrator 19.0.0, SVG Export Plug-In . SVG Version: 6.00 Build 0)  -->
<svg version="1.1" id="Capa_1" xmlns="http://www.w3.org/2000/svg" xmlns:xlink="http://www.w3.org/1999/xlink" x="0px" y="0px"
	 viewBox="0 0 380.555 380.555" style="enable-background:new 0 0 380.555 380.555;" xml:space="preserve">
<g id="XMLID_505_">
	<g id="XMLID_506_">
		<polygon id="XMLID_507_" style="fill:#D87D60;" points="172.5,157.721 165.928,127.042 192.651,106.891 219.736,129.776 
			212.801,157.721 		"/>
		<polygon id="XMLID_508_" style="fill:#D46C5B;" points="192.651,106.891 192.651,157.721 212.801,157.721 219.736,129.776 		"/>
	</g>
	<polygon id="XMLID_46_" style="fill:#D46C5B;" points="206.122,156.873 214.228,124.852 247.187,122.666 259.451,153.336 
		234.072,174.477 	"/>
	<polygon id="XMLID_45_" style="fill:#D46C5B;" points="241.324,181.393 247.05,148.862 279.758,144.255 291.965,186.891 
		270.494,196.891 	"/>
	<polygon id="XMLID_44_" style="fill:#D87D60;" points="101.324,181.393 107.05,148.862 139.758,144.255 151.965,186.891 
		130.494,196.891 	"/>
	<polygon id="XMLID_43_" style="fill:#D87D60;" points="182.812,159.533 174.385,127.595 141.406,125.74 129.451,165.89 
		155.041,177.417 	"/>
	<path id="XMLID_42_" style="fill:#D87D60;" d="M200.379,272.724l-2.659-1.112c-4.773-1.997-7.024-7.485-5.027-12.258l11.289-51.964
		l19.945,8.344l-11.289,51.964C210.641,272.47,205.152,274.721,200.379,272.724z"/>
	<path id="XMLID_41_" style="fill:#D87D60;" d="M235.987,273.664h-2.883c-5.174,0-9.368-4.194-9.368-9.368V202.97h21.62v61.325
		C245.355,269.47,241.161,273.664,235.987,273.664z"/>
	<path id="XMLID_40_" style="fill:#DD916F;" d="M116.59,272.724l-2.659-1.112c-4.773-1.997-7.024-7.485-5.027-12.258l11.289-51.964
		l19.945,8.344l-11.289,51.964C126.851,272.47,121.363,274.721,116.59,272.724z"/>
	<path id="XMLID_39_" style="fill:#DD916F;" d="M152.197,273.664h-2.883c-5.174,0-9.368-4.194-9.368-9.368v-54.23h21.62v54.23
		C161.566,269.47,157.371,273.664,152.197,273.664z"/>
	<path id="XMLID_509_" style="fill:#DD916F;" d="M378.653,183.664c0,0-15.598,29.5-70.326,13.554
		c-7.321-2.133-60.772-60.326-119.48-60.326c-40.292,0-74.419,25.326-88.292,26.773c-27.044,2.821-41.685-8.722-47.544-14.308
		c-2.009-7.076-8.68-32.465-21.047-32.465c-13.807,0-39.21,27.72-30,40c6,8,12.602,10,26.409,10c1.043,0,21.327,3.195,25.034,5.385
		c3.708,2.19,25.614,19.043,31.512,28.31c5.898,9.267,10.544,11.712,15.169,14.491c41.466,24.92,74.133,43.586,149.26,4.214
		c0,0,0.504-2.357,8.088,1.524c0,0,29.55,9.516,72.357,3.195C384.403,215.947,383.034,190.233,378.653,183.664z"/>
	<path id="XMLID_510_" style="fill:#D87D60;" d="M378.653,183.664c0,0-15.598,29.5-70.326,13.554
		c-7.192-2.095-58.892-58.276-116.363-60.267v103.475c16.245-2.778,34.914-9.358,57.384-21.134c0,0,2.949-0.9,8.088,1.524
		c0,0,29.55,9.516,72.357,3.195C384.403,215.947,383.034,190.233,378.653,183.664z"/>
	<path id="XMLID_511_" d="M25.965,140.891c-3.309,0-6,2.691-6,6s2.691,6,6,6s6-2.691,6-6S29.273,140.891,25.965,140.891z"/>
	<circle id="XMLID_512_" style="fill:#F3D363;" cx="231.965" cy="176.891" r="10"/>
	<circle id="XMLID_34_" style="fill:#F6E277;" cx="171.965" cy="186.891" r="10"/>
	<circle id="XMLID_515_" style="fill:#F3D363;" cx="211.965" cy="206.891" r="10"/>
	<circle id="XMLID_516_" style="fill:#F3D363;" cx="196.965" cy="171.891" r="5"/>
	<circle id="XMLID_3_" style="fill:#F6E277;" cx="176.965" cy="211.891" r="5"/>
</g>
<g>
</g>
<g>
</g>
<g>
</g>
<g>
</g>
<g>
</g>
<g>
</g>
<g>
</g>
<g>
</g>
<g>
</g>
<g>
</g>
<g>
</g>
<g>
</g>
<g>
</g>
<g>
</g>
<g>
</g>
</svg>
