<?xml version="1.0" encoding="iso-8859-1"?>
<!-- Generator: Adobe Illustrator 19.0.0, SVG Export Plug-In . SVG Version: 6.00 Build 0)  -->
<svg version="1.1" id="Capa_1" xmlns="http://www.w3.org/2000/svg" xmlns:xlink="http://www.w3.org/1999/xlink" x="0px" y="0px"
	 viewBox="0 0 363.23 363.23" style="enable-background:new 0 0 363.23 363.23;" xml:space="preserve">
<g id="XMLID_868_">
	<path id="XMLID_44_" style="fill:#D570A7;" d="M210.031,226.213L230,256.166l-3.328,2.219c-5.492,3.661-6.989,11.15-3.328,16.641
		c3.661,5.492,11.15,6.989,16.641,3.328l3.328-2.219l19.969-13.313l-13.313-19.969L230,212.9L210.031,226.213z"/>
	<path id="XMLID_869_" style="fill:#D570A7;" d="M186,218.955v36h-4c-6.6,0-12,5.4-12,12c0,6.6,5.4,12,12,12h4h24v-24v-36H186z"/>
	<path id="XMLID_42_" style="fill:#DA88B4;" d="M116.749,222.268l19.969,29.954l-3.328,2.219c-5.492,3.661-6.989,11.15-3.328,16.641
		c3.661,5.492,11.15,6.989,16.641,3.328l3.328-2.219L170,258.878l-13.313-19.969l-19.969-29.954L116.749,222.268z"/>
	<path id="XMLID_870_" style="fill:#DA88B4;" d="M92.718,215.011v36h-4c-6.6,0-12,5.4-12,12c0,6.6,5.4,12,12,12h4h24v-24v-36H92.718
		z"/>
	<path id="XMLID_871_" style="fill:#DA88B4;" d="M292.363,194.159c-7.765-13.09-6.008-22.393-30.748-52.543
		c-4.483-5.464-13.089-11.398-23.651-16.693c0.78-0.917,1.597-1.862,2.498-2.871c3.732-4.179-2.063-3.435-10.653-0.918
		c-1.694-0.73-3.416-1.441-5.166-2.127c1.568-2.037,3.476-4.331,5.819-6.955c4.987-5.585-7.033-2.38-20.011,2.102
		c-0.206-0.06-0.413-0.118-0.62-0.177c1.818-2.585,4.286-5.661,7.616-9.39c5.695-6.377-10.782-1.295-25.541,4.063
		c1.516-1.949,3.333-4.125,5.541-6.598c7.511-8.412-23.553,3.114-38.366,8.912c2.45-2.724,4.957-6.059,4.957-8.315
		c0,0,1.559-4.663-2.074-1.551c0,0-10.106,10.888-27.739,12.7c0,0-18.922,2.074-25.919,9.334c0,0-1.559-1.556-2.594-2.077
		c0,0,21.543-31.232,55.242-30.711c0,0,14.774-1.556,1.036-4.666c0,0-31.651-13.878-67.422,20.085c0,0-7.519,7.772-12.962,7.511
		c0,0-18.044,1.043-31.113,10.632c-5.736,4.208-3.492,25.927-7.381,27.483c0,0-6.225,2.589-1.818,9.07
		c0,0-11.042,15.549-15.19,8.547c0,0-20.222-30.587-20.999-26.954c0,0,3.889,31.625,8.296,38.88c0,0-13.402,3.057-13.402,21.177
		c0,39.054,36.497,21.343,43.239,22.637c0,0,21.77,1.556,28.513-1.815c0,0,8.489-14.966,9.863-14.073
		c61.956,40.28,165.275,40.612,168.385,40.095c0,0,15.852-21.036,20-20c0,0,50.153,40.065,93.23-14.999
		C363.23,213.957,311.615,226.615,292.363,194.159z M154.479,115.588c0,0,0.002,0.001,0.002,0.001
		c-0.009,0.008-0.019,0.014-0.028,0.022C154.453,115.611,154.475,115.591,154.479,115.588z"/>
	<path id="XMLID_874_" style="fill:#D570A7;" d="M292.363,194.159c-7.765-13.09-6.008-22.393-30.748-52.543
		c-4.483-5.464-13.089-11.398-23.651-16.693c0.78-0.917,1.597-1.862,2.498-2.871c3.732-4.179-2.063-3.435-10.653-0.918
		c-1.694-0.73-3.416-1.441-5.166-2.127c1.568-2.037,3.476-4.331,5.819-6.955c4.987-5.585-7.033-2.38-20.011,2.102
		c-0.206-0.06-0.413-0.118-0.62-0.177c1.818-2.585,4.286-5.661,7.616-9.39c5.695-6.377-10.782-1.295-25.541,4.063
		c1.516-1.949,3.333-4.125,5.541-6.598c4.445-4.978-4.62-2.973-15.832,0.695v140.483c36.901,6.035,66.736,6.001,68.385,5.726
		c0,0,15.852-21.036,20-20c0,0,50.153,40.065,93.23-14.999C363.23,213.957,311.615,226.615,292.363,194.159z"/>
	<path id="XMLID_875_" style="fill:#D570A7;" d="M186,218.955v36h-4c-0.13,0-0.256,0.015-0.385,0.02v23.961
		c0.129,0.004,0.255,0.02,0.385,0.02h4h24v-24v-36H186z"/>
	<circle id="XMLID_876_" style="fill:#FFE477;" cx="151.615" cy="171.615" r="10"/>
	<circle id="XMLID_877_" style="fill:#FFE477;" cx="176.615" cy="146.615" r="15"/>
	<circle id="XMLID_878_" style="fill:#F3D363;" cx="201.615" cy="171.615" r="10"/>
	<circle id="XMLID_879_" cx="61.615" cy="171.616" r="9.249"/>
	<path id="XMLID_880_" style="fill:#F3D363;" d="M181.615,132.487v28.256c5.822-2.061,10-7.6,10-14.128
		S187.437,134.548,181.615,132.487z"/>
</g>
<g>
</g>
<g>
</g>
<g>
</g>
<g>
</g>
<g>
</g>
<g>
</g>
<g>
</g>
<g>
</g>
<g>
</g>
<g>
</g>
<g>
</g>
<g>
</g>
<g>
</g>
<g>
</g>
<g>
</g>
</svg>
