<?xml version="1.0" encoding="iso-8859-1"?>
<!-- Generator: Adobe Illustrator 19.0.0, SVG Export Plug-In . SVG Version: 6.00 Build 0)  -->
<svg version="1.1" id="Capa_1" xmlns="http://www.w3.org/2000/svg" xmlns:xlink="http://www.w3.org/1999/xlink" x="0px" y="0px"
	 viewBox="0 0 344.215 344.215" style="enable-background:new 0 0 344.215 344.215;" xml:space="preserve">
<g id="XMLID_308_">
	<path id="XMLID_44_" style="fill:#98C79C;" d="M214.838,287.691h-4.701c-8.437,0-15.277-6.84-15.277-15.277v-47.702h35.255v47.702
		C230.115,280.851,223.275,287.691,214.838,287.691z"/>
	<path id="XMLID_43_" style="fill:#98C79C;" d="M262.882,283.913l-4.282,1.94c-7.685,3.483-16.738,0.076-20.221-7.609l-19.69-43.449
		l32.112-14.552l19.69,43.449C273.973,271.377,270.567,280.43,262.882,283.913z"/>
	<path id="XMLID_42_" style="fill:#ABD1AD;" d="M107.72,287.319l-4.521-1.288c-8.114-2.312-12.818-10.765-10.505-18.879
		l13.074-45.875l33.905,9.662l-13.074,45.875C124.287,284.929,115.834,289.632,107.72,287.319z"/>
	<path id="XMLID_41_" style="fill:#ABD1AD;" d="M154.95,287.691h-4.701c-8.437,0-15.277-6.84-15.277-15.277v-47.702h35.255v47.702
		C170.227,280.851,163.387,287.691,154.95,287.691z"/>
	<path id="XMLID_309_" style="fill:#ABD1AD;" d="M344.215,151.881c-11,64-33.5,78.06-64.22,89.91
		c-33.64,12.98-60.75,12.72-77.23,12.72c-2.88,0-5.67-0.01-8.39-0.02c-0.96-0.01-1.91-0.01-2.84-0.02c-0.39,0-0.78-0.01-1.16-0.01
		c-1.04-0.01-2.07-0.02-3.08-0.03c-2.08-0.02-4.11-0.05-6.09-0.08c-1.29-0.02-2.56-0.04-3.81-0.07c-0.67-0.01-1.33-0.02-1.99-0.03
		c-1.12-0.03-2.22-0.05-3.3-0.08c-0.74-0.01-1.47-0.03-2.2-0.05l-32.29-1.56c-45.72-3.52-29.01-45.68-55.51-40.68
		c-27.88,5.26-64.42-0.4-70-20c-11.46-40.29,35.12-50.08,33.98-53.66c-12.8-40.05,31.26-73.94,54.55-79.58
		c41.9-10.15,69.14,14.51,71.47,41.15v0.04c0.01,0.09,0.02,0.19,0.02,0.28c0.03,0.33,0.05,0.66,0.07,1
		c0.03,0.39,0.05,0.78,0.05,1.17c0.01,0.2,0.02,0.41,0.01,0.62c0.01,0.21,0.01,0.41,0.01,0.62c0,0.5-0.01,1.01-0.03,1.52
		c-0.02,0.4-0.03,0.81-0.06,1.21c-0.02,0.33-0.04,0.66-0.07,0.99c5.13-0.16,12.56-0.69,18.8-0.73c3.06-0.03,5.82,0.07,7.89,0.38
		c6.32,0.95,11.86,2.13,16.78,3.51c2.25,0.63,4.37,1.31,6.37,2.04c7.32,2.64,13.05,5.89,17.82,9.72c1.17,0.93,2.28,1.9,3.34,2.91
		c5.87,5.56,10.29,12.18,14.84,19.82c1.79,3.02,3.61,6.2,5.54,9.54c3.13,5.41,6.57,11.23,10.73,17.45c0.98,1.46,1.99,2.77,3.03,3.93
		C301.985,203.561,344.215,151.881,344.215,151.881z"/>
	<polygon id="XMLID_39_" style="fill:#ABD1AD;" points="22.587,183.835 0,130.586 55.008,148.467 	"/>
	<g id="XMLID_311_">
		<path id="XMLID_312_" style="fill:#98C79C;" d="M172.105,99.791v7.454C172.328,104.761,172.321,102.268,172.105,99.791z"/>
		<path id="XMLID_333_" style="fill:#98C79C;" d="M344.215,151.881c-11,64-33.5,78.06-64.22,89.91
			c-33.64,12.98-60.75,12.72-77.23,12.72c-2.88,0-5.67-0.01-8.39-0.02c-0.96-0.01-1.91-0.01-2.84-0.02c-0.39,0-0.78-0.01-1.16-0.01
			c-1.04-0.01-2.07-0.02-3.08-0.03c-2.08-0.02-4.11-0.05-6.09-0.08c-1.29-0.02-2.56-0.04-3.81-0.07c-0.67-0.01-1.33-0.02-1.99-0.03
			c-1.12-0.03-2.22-0.05-3.3-0.08v-146.93c5.13-0.16,12.56-0.69,18.8-0.73c3.06-0.03,5.82,0.07,7.89,0.38
			c6.32,0.95,11.86,2.13,16.78,3.51c2.25,0.63,4.37,1.31,6.37,2.04c7.32,2.64,13.05,5.89,17.82,9.72c1.17,0.93,2.28,1.9,3.34,2.91
			c5.87,5.56,10.29,12.18,14.84,19.82c1.79,3.02,3.61,6.2,5.54,9.54c3.13,5.41,6.57,11.23,10.73,17.45
			c0.98,1.46,1.99,2.77,3.03,3.93C301.985,203.561,344.215,151.881,344.215,151.881z"/>
	</g>
	<circle id="XMLID_334_" style="fill:#272525;" cx="72.105" cy="161.881" r="10"/>
	<path id="XMLID_337_" style="fill:#FFE477;" d="M210.995,130.261c-5.88,1.89-15.16-10.34-20.09-23.75
		c3.06-0.03,5.82,0.07,7.89,0.38c6.32,0.95,11.86,2.13,16.78,3.51C216.655,120.291,215.305,128.871,210.995,130.261z"/>
	<path id="XMLID_338_" style="fill:#FFE477;" d="M239.765,122.161c-4.18,6.66-8.95,11.02-12.61,9.96
		c-4.34-1.25-5.97-9.76-5.21-19.68C229.265,115.081,234.995,118.331,239.765,122.161z"/>
	<path id="XMLID_340_" style="fill:#FFE477;" d="M257.945,144.891c-3.81,5.12-7.86,8.19-11.01,7.23
		c-5.35-1.63-6.38-14.38-3.83-27.05C248.975,130.631,253.395,137.251,257.945,144.891z"/>
	<path id="XMLID_341_" style="fill:#FFE477;" d="M277.245,175.811c-3.5,4.31-7.11,6.77-9.97,5.9c-5.39-1.64-6.4-14.53-3.79-27.28
		c3.13,5.41,6.57,11.23,10.73,17.45C275.195,173.341,276.205,174.651,277.245,175.811z"/>
</g>
<g>
</g>
<g>
</g>
<g>
</g>
<g>
</g>
<g>
</g>
<g>
</g>
<g>
</g>
<g>
</g>
<g>
</g>
<g>
</g>
<g>
</g>
<g>
</g>
<g>
</g>
<g>
</g>
<g>
</g>
</svg>
