<?xml version="1.0" encoding="iso-8859-1"?>
<!-- Generator: Adobe Illustrator 19.0.0, SVG Export Plug-In . SVG Version: 6.00 Build 0)  -->
<svg version="1.1" id="Capa_1" xmlns="http://www.w3.org/2000/svg" xmlns:xlink="http://www.w3.org/1999/xlink" x="0px" y="0px"
	 viewBox="0 0 392.173 392.173" style="enable-background:new 0 0 392.173 392.173;" xml:space="preserve">
<g id="XMLID_21_">
	<path id="XMLID_43_" style="fill:#DB8269;" d="M228.943,290.869h-4.701c-8.437,0-15.277-6.84-15.277-15.277V227.89h35.255v47.702
		C244.221,284.029,237.381,290.869,228.943,290.869z"/>
	<path id="XMLID_42_" style="fill:#DB8269;" d="M276.987,287.091l-4.282,1.94c-7.685,3.483-16.738,0.076-20.221-7.609l-19.69-43.449
		l32.112-14.552l19.69,43.449C288.079,274.555,284.672,283.608,276.987,287.091z"/>
	<path id="XMLID_41_" style="fill:#DF936F;" d="M121.826,290.497l-4.521-1.288c-8.114-2.312-12.818-10.765-10.505-18.879
		l13.074-45.875l33.905,9.662l-13.074,45.875C138.392,288.107,129.94,292.81,121.826,290.497z"/>
	<path id="XMLID_40_" style="fill:#DF936F;" d="M169.055,290.869h-4.701c-8.437,0-15.277-6.84-15.277-15.277V227.89h35.255v47.702
		C184.332,284.029,177.492,290.869,169.055,290.869z"/>
	<path id="XMLID_39_" style="fill:#DF936F;" d="M392.173,170.207c-79.701,69.562-118.153-69.121-210.844-69.121
		c-67.919,0-87.259,102.767-130,90c-25.667-7.667-58.346,8.469-50,39.756c4.333,16.244,29.138,14.189,40,10.244
		c59.667-21.667,104.995,37.555,105.543,23.466c12.058,1.003,25.134,1.667,40.264,1.667c4.95,0,67.472,5.665,68.461-8.668
		C314.312,242.946,368.132,210.986,392.173,170.207L392.173,170.207z"/>
	<path id="XMLID_22_" style="fill:#DB8269;" d="M196.086,102.278v164.417c18.581,0.992,58.719,2.319,59.51-9.143
		c58.716-14.606,112.536-46.565,136.577-87.344C316.837,235.959,278.355,115.653,196.086,102.278z"/>
	<circle id="XMLID_23_" style="fill:#FFE477;" cx="166.086" cy="151.086" r="10"/>
	<circle id="XMLID_24_" style="fill:#FFE477;" cx="191.086" cy="126.086" r="15"/>
	<circle id="XMLID_25_" style="fill:#F6D563;" cx="216.086" cy="151.086" r="10"/>
	<circle id="XMLID_34_" style="fill:#F6D563;" cx="274.086" cy="213.086" r="12"/>
	<circle id="XMLID_33_" style="fill:#F6D563;" cx="254.086" cy="233.086" r="8"/>
	<path id="XMLID_26_" style="fill:#F6D563;" d="M196.086,111.958v28.256c5.822-2.061,10-7.6,10-14.128
		C206.086,119.558,201.908,114.02,196.086,111.958z"/>
	<path id="XMLID_27_" d="M30.086,201.086c-3.309,0-6,2.691-6,6s2.691,6,6,6s6-2.691,6-6S33.395,201.086,30.086,201.086z"/>
</g>
<g>
</g>
<g>
</g>
<g>
</g>
<g>
</g>
<g>
</g>
<g>
</g>
<g>
</g>
<g>
</g>
<g>
</g>
<g>
</g>
<g>
</g>
<g>
</g>
<g>
</g>
<g>
</g>
<g>
</g>
</svg>
