<?xml version="1.0" encoding="iso-8859-1"?>
<!-- Generator: Adobe Illustrator 19.0.0, SVG Export Plug-In . SVG Version: 6.00 Build 0)  -->
<svg version="1.1" id="Capa_1" xmlns="http://www.w3.org/2000/svg" xmlns:xlink="http://www.w3.org/1999/xlink" x="0px" y="0px"
	 viewBox="0 0 346.166 346.166" style="enable-background:new 0 0 346.166 346.166;" xml:space="preserve">
<g id="XMLID_12_">
	<path id="XMLID_42_" style="fill:#FFE477;" d="M141.846,346.166h-4.063c-7.293,0-13.205-5.912-13.205-13.205v-41.231h30.473v41.231
		C155.051,340.254,149.139,346.166,141.846,346.166z"/>
	<path id="XMLID_41_" style="fill:#F6D563;" d="M198.685,346.166h-4.063c-7.293,0-13.205-5.912-13.205-13.205v-41.231h30.473v41.231
		C211.89,340.254,205.978,346.166,198.685,346.166z"/>
	<path id="XMLID_40_" style="fill:#F6D563;" d="M229.158,346.166h-4.063c-7.293,0-13.205-5.912-13.205-13.205v-41.231h30.473v41.231
		C242.362,340.254,236.45,346.166,229.158,346.166z"/>
	<path id="XMLID_39_" style="fill:#FFE477;" d="M95.311,332.878l-3.78-1.49c-6.785-2.674-10.117-10.342-7.443-17.127l15.119-38.359
		l28.35,11.174l-15.119,38.359C109.764,332.22,102.096,335.552,95.311,332.878z"/>
	<path id="XMLID_13_" style="fill:#FFE477;" d="M295.428,188.023c0-60.871-31.84-74.292-31.84-74.292s15.212,85.869-62.51,85.869
		c-41.146,0-46.587-62.505-43.925-107.095C160.346,39.04,151.115,0,110.142,0C70.763,0,50.738,48.11,50.738,62.77
		c0,21.01,10.859,27.351,32.426,25.237c18.042-1.769,40.046-20.482,40.046,1.674c0,22.742-39.851,67.613-39.851,130.868
		c0,73.96,63.877,101.979,64.818,89.281c8.024,1.991,16.819,3.074,26.407,3.074c9.813,0,19.623-1.417,29.2-4.068
		c0.933,12.878,42.05-17.637,50.383-27.28C279.508,252.233,295.428,227.346,295.428,188.023z"/>
	<circle id="XMLID_14_" style="fill:#272525;" cx="93.083" cy="43.083" r="10"/>
	<path id="XMLID_15_" style="fill:#F6D563;" d="M263.589,113.731c0,0,15.212,85.869-62.51,85.869
		c-12.258,0-21.346-5.549-27.996-14.518v127.801c0.502,0.006,0.997,0.021,1.503,0.021c9.813,0,19.623-1.417,29.199-4.068
		c0.933,12.878,42.05-17.637,50.383-27.28c25.34-29.323,41.259-54.21,41.259-93.532
		C295.428,127.153,263.589,113.731,263.589,113.731z"/>
	<circle id="XMLID_16_" style="fill:#98C79C;" cx="197.083" cy="229.083" r="16"/>
	<circle id="XMLID_17_" style="fill:#ABD1AD;" cx="123.083" cy="203.083" r="11"/>
	<circle id="XMLID_18_" style="fill:#ABD1AD;" cx="149.083" cy="261.083" r="16"/>
	<circle id="XMLID_19_" style="fill:#ABD1AD;" cx="155.083" cy="223.083" r="8"/>
	<circle id="XMLID_20_" style="fill:#98C79C;" cx="189.083" cy="269.083" r="8"/>
</g>
<g>
</g>
<g>
</g>
<g>
</g>
<g>
</g>
<g>
</g>
<g>
</g>
<g>
</g>
<g>
</g>
<g>
</g>
<g>
</g>
<g>
</g>
<g>
</g>
<g>
</g>
<g>
</g>
<g>
</g>
</svg>
