<?xml version="1.0" encoding="iso-8859-1"?>
<!-- Generator: Adobe Illustrator 19.0.0, SVG Export Plug-In . SVG Version: 6.00 Build 0)  -->
<svg version="1.1" id="Capa_1" xmlns="http://www.w3.org/2000/svg" xmlns:xlink="http://www.w3.org/1999/xlink" x="0px" y="0px"
	 viewBox="0 0 351.54 351.54" style="enable-background:new 0 0 351.54 351.54;" xml:space="preserve">
<g id="XMLID_791_">
	<path id="XMLID_43_" style="fill:#D570A7;" d="M147.521,93.521c-2.211,29.218-3.043,64.7,1.849,98.976
		c8.199-1.344,21.087-9.977,19.887-18.082c-0.877-5.925-9.043-9.937-16.589-11.245c7.987-2.348,17.672-9.099,17.059-16.076
		c-0.581-6.611-10.235-11.409-18.286-12.676c8.026-2.049,17.736-8.236,17.469-15.132c-0.249-6.423-9.082-11.564-16.887-13.391
		c7.967-2.125,17.438-8.244,17.174-15.055c-0.249-6.422-9.081-11.564-16.886-13.391c7.967-2.125,17.436-8.243,17.172-15.056
		c-0.304-7.826-13.348-13.748-21.752-14.088C149.286,62.776,148.701,77.927,147.521,93.521z"/>
	<path id="XMLID_792_" style="fill:#DA88B4;" d="M241.178,111.387l-1.3,1.18c16.69,41.35,16.23,81.44-14.29,97.25
		c-4.34,2.25-9.28,4.01-14.88,5.21c-2.26,0.49-4.63,0.88-7.11,1.18c-3.99,0.49-8.26,0.72-12.82,0.68h-0.86
		c-0.2,0-0.41-0.01-0.62-0.01c-6.63-0.13-12.21-1.23-16.89-3.14c-1.92-0.78-3.69-1.7-5.32-2.75c-5.52-3.55-9.41-8.54-12.06-14.55
		c-12.15-27.49,1.5-76.24,3.23-105.16c2.632-44.126-17.297-88.897-43.419-91.239c-5.015-0.45-15.451,3.213-19.071,1.589
		c-0.929-0.417-1.924-0.698-2.942-0.723c-4.382-0.109-8.088,3.233-8.593,7.457c-0.185,1.55,0.19,3.113,0.901,4.503
		c1.63,3.187,3.485,2.497,1.453,5.002c-11.569,14.26-18.329,13.199-18.329,23.41c0,19.63,1.09,30.52,21.34,30.52
		c10.1,0,26.94-3.86,26.94,16.84c0,21.25-23.28,74.64-37.23,147.82c-4.14,21.74,4.95,63.82,48.95,74.82
		c74.24,18.56,100.5-2.82,110-10c29.35-22.18,45.02-63.67,45.02-100.41C283.279,143.987,241.178,111.387,241.178,111.387z"/>
	<path id="XMLID_41_" style="fill:#DA88B4;" d="M136.938,351.54h-4.063c-7.293,0-13.205-5.912-13.205-13.205v-41.231h30.473v41.231
		C150.143,345.628,144.231,351.54,136.938,351.54z"/>
	<path id="XMLID_40_" style="fill:#D570A7;" d="M193.776,351.54h-4.063c-7.293,0-13.205-5.912-13.205-13.205v-41.231h30.473v41.231
		C206.981,345.628,201.069,351.54,193.776,351.54z"/>
	<path id="XMLID_39_" style="fill:#D570A7;" d="M224.249,351.54h-4.063c-7.293,0-13.205-5.912-13.205-13.205v-41.231h30.473v41.231
		C237.454,345.628,231.542,351.54,224.249,351.54z"/>
	<path id="XMLID_38_" style="fill:#DA88B4;" d="M90.402,338.251l-3.78-1.49c-6.785-2.674-10.117-10.342-7.443-17.127l15.119-38.359
		l28.35,11.174l-15.119,38.359C104.855,337.593,97.187,340.925,90.402,338.251z"/>
	<path id="XMLID_793_" style="fill:#D570A7;" d="M241.175,111.389l-1.293,1.182c21.739,53.857,14.387,105.556-50.586,104.311
		c-5.115-0.098-9.593-0.787-13.527-1.969v103.649c38.904,1.389,55.382-11.919,62.487-17.288
		c29.357-22.179,45.025-63.672,45.025-100.412C283.281,143.991,241.175,111.389,241.175,111.389z"/>
	<path id="XMLID_794_" style="fill:#FFE477;" d="M190.779,216.887c0.02,0.51,0.02,1.02,0,1.52c-0.08,6.77-1.65,11.97-4.92,13.03
		c-4.35,1.4-10.56-4.93-15.49-13.74c-1.18-2.12-2.29-4.38-3.28-6.71c1.63,1.05,3.4,1.97,5.32,2.75c4.68,1.91,10.26,3.01,16.89,3.14
		c0.21,0,0.42,0.01,0.62,0.01H190.779z"/>
	<path id="XMLID_795_" style="fill:#F6D563;" d="M210.769,218.777c-0.13,6.59-1.7,11.62-4.91,12.66
		c-4.23,1.36-10.22-4.59-15.08-13.03c-0.29-0.5-0.58-1.01-0.86-1.52h0.86c4.56,0.04,8.83-0.19,12.82-0.68
		c2.48-0.3,4.85-0.69,7.11-1.18C210.789,216.317,210.809,217.567,210.769,218.777z"/>
	<path id="XMLID_796_" style="fill:#F6D563;" d="M226.619,217.817c-2.03,3.18-8.39,3.13-15.85,0.96c-2.31-0.66-4.74-1.53-7.17-2.57
		c2.48-0.3,4.85-0.69,7.11-1.18c5.6-1.2,10.54-2.96,14.88-5.21C227.319,213.047,227.839,215.897,226.619,217.817z"/>
	<path id="XMLID_797_" style="fill:#FFE477;" d="M172.409,213.737c-0.65,1.39-1.33,2.72-2.04,3.96c-3.64,6.45-7.91,10.68-11.49,9.9
		c-5.37-1.19-5.63-17.64-3.85-31.16c2.65,6.01,6.54,11,12.06,14.55C168.718,212.037,170.489,212.957,172.409,213.737z"/>
	<path id="XMLID_798_" style="fill:#F6D563;" d="M189.918,216.887c-0.2,0-0.41-0.01-0.62-0.01c-5.114-0.1-9.597-0.783-13.53-1.964
		v10.752c3.573,4.264,7.232,6.692,10.09,5.773c3.27-1.06,4.84-6.26,4.92-13.03c0.02-0.5,0.02-1.01,0-1.52H189.918z"/>
	<circle id="XMLID_799_" style="fill:#272525;" cx="105.769" cy="31.627" r="10"/>
</g>
<g>
</g>
<g>
</g>
<g>
</g>
<g>
</g>
<g>
</g>
<g>
</g>
<g>
</g>
<g>
</g>
<g>
</g>
<g>
</g>
<g>
</g>
<g>
</g>
<g>
</g>
<g>
</g>
<g>
</g>
</svg>
