<?xml version="1.0" encoding="iso-8859-1"?>
<!-- Generator: Adobe Illustrator 19.0.0, SVG Export Plug-In . SVG Version: 6.00 Build 0)  -->
<svg version="1.1" id="Capa_1" xmlns="http://www.w3.org/2000/svg" xmlns:xlink="http://www.w3.org/1999/xlink" x="0px" y="0px"
	 viewBox="0 0 341.418 341.418" style="enable-background:new 0 0 341.418 341.418;" xml:space="preserve">
<g id="XMLID_488_">
	<path id="XMLID_489_" style="fill:#ABD1AD;" d="M306.857,200.418c0-60.871-31.84-74.292-31.84-74.292s8.234,64.922-58.099,65.922
		c-41.141,0.62-60-6.959-60-51.629c0-76.629,1-122.333-40-130C53.497-1.442,26.048,55.117,36.857,78.788c26.333,57.667,60-3,60,40
		c0,22.742,0.062,30.003,0.062,93.259c0,73.96,47.206,93.072,59.939,93.006c26-0.135,98.15-0.196,108.679-7.378
		C287.796,282.49,306.857,239.74,306.857,200.418z"/>
	<path id="XMLID_490_" style="fill:#98C79C;" d="M275.018,126.125c0,0,8.234,64.922-58.099,65.922
		c-21.133,0.319-36.372-1.543-46.21-9.467v122.397c31.729-0.226,85.821-1.158,94.828-7.302
		c22.26-15.185,41.321-57.935,41.321-97.257C306.857,139.547,275.018,126.125,275.018,126.125z"/>
	<circle id="XMLID_491_" style="fill:#ABD1AD;" cx="138.857" cy="208.047" r="8"/>
	<circle id="XMLID_493_" style="fill:#272525;" cx="89.574" cy="55.418" r="15"/>
	<path id="XMLID_42_" style="fill:#98C79C;" d="M207.303,340.514l-3.301-1.381c-5.925-2.479-8.719-9.291-6.24-15.217l14.014-33.499
		l24.758,10.357l-14.014,33.499C220.04,340.198,213.228,342.992,207.303,340.514z"/>
	<path id="XMLID_41_" style="fill:#98C79C;" d="M255.228,340.418h-3.578c-6.423,0-11.629-5.207-11.629-11.629V283.67h26.837v45.119
		C266.857,335.211,261.651,340.418,255.228,340.418z"/>
	<path id="XMLID_40_" style="fill:#ABD1AD;" d="M127.138,339.251l-3.301-1.381c-5.925-2.479-8.719-9.291-6.24-15.216l14.014-33.499
		l24.758,10.357l-14.014,33.499C139.876,338.936,133.063,341.73,127.138,339.251z"/>
	<path id="XMLID_39_" style="fill:#ABD1AD;" d="M171.339,340.418h-3.578c-6.423,0-11.629-5.207-11.629-11.629v-36.312h26.837v36.312
		C182.968,335.211,177.761,340.418,171.339,340.418z"/>
	<path id="XMLID_38_" style="fill:#FFE477;" d="M164.783,186.089c0,0-13.476-68.685,16.028-75.035
		c24.04-5.174,58.066,22.597,75.831,31.727c2.799,1.439-22.292,1.692-42.888,12.674c-27.562,14.695-17.715,47.631-17.715,47.631
		L164.783,186.089z"/>
	<path id="XMLID_37_" style="fill:#ABD1AD;" d="M64.059,48.127l-8.328-36.186c-1.682-7.31,5.179-13.7,12.351-11.502l35.502,10.881
		L64.059,48.127z"/>
	<circle id="XMLID_36_" style="fill:#F6D563;" cx="199.439" cy="267.124" r="10"/>
	<circle id="XMLID_35_" style="fill:#F6D563;" cx="211.857" cy="225.418" r="15"/>
	<circle id="XMLID_34_" style="fill:#F6D563;" cx="251.857" cy="255.418" r="15"/>
	<circle id="XMLID_33_" style="fill:#F6D563;" cx="256.857" cy="210.418" r="10"/>
	<path id="XMLID_494_" style="fill:#98C79C;" d="M170.709,292.477v47.941h0.63c6.423,0,11.629-5.207,11.629-11.629v-36.312H170.709z
		"/>
	<path id="XMLID_495_" style="fill:#F6D563;" d="M256.642,142.782c-17.765-9.131-51.792-36.901-75.832-31.727
		c-4.175,0.899-7.488,3.047-10.102,6.071v72.186l25.331,13.775c0,0-9.847-32.936,17.714-47.631
		C234.35,144.474,259.442,144.221,256.642,142.782z"/>
</g>
<g>
</g>
<g>
</g>
<g>
</g>
<g>
</g>
<g>
</g>
<g>
</g>
<g>
</g>
<g>
</g>
<g>
</g>
<g>
</g>
<g>
</g>
<g>
</g>
<g>
</g>
<g>
</g>
<g>
</g>
</svg>
