<?xml version="1.0" encoding="iso-8859-1"?>
<!-- Generator: Adobe Illustrator 19.0.0, SVG Export Plug-In . SVG Version: 6.00 Build 0)  -->
<svg version="1.1" id="Capa_1" xmlns="http://www.w3.org/2000/svg" xmlns:xlink="http://www.w3.org/1999/xlink" x="0px" y="0px"
	 viewBox="0 0 360.603 360.603" style="enable-background:new 0 0 360.603 360.603;" xml:space="preserve">
<g id="XMLID_899_">
	<path id="XMLID_45_" style="fill:#97BE59;" d="M76.396,104.365c13.879,16.584,31.714,35.77,51.954,51.371
		c3.642-4.933,6.009-16.135,1.2-19.802c-3.516-2.681-9.898-0.596-14.561,2.599c3.013-5.355,4.656-13.912,0.738-17.285
		c-3.712-3.196-11.286-0.76-16.196,2.717c3.187-5.217,5.134-13.488,1.441-16.997c-3.44-3.268-10.757-1.436-15.824,1.618
		c3.117-5.226,4.973-13.339,1.325-16.804c-3.439-3.267-10.757-1.436-15.823,1.618c3.117-5.226,4.972-13.338,1.324-16.804
		c-4.191-3.98-14.137-0.393-18.755,3.755C61.494,87.202,68.988,95.513,76.396,104.365z"/>
	<path id="XMLID_44_" style="fill:#97BE59;" d="M201.555,251.304l27.293,27.824c0,0-4.315,7.687-6.829,11.383
		c-1.978,2.91-4.339,5.12-3.134,9.719l0.671,2.562c1.204,4.599,19.594,3.767,19.594,3.767l9.243-22.956l-18.585-39.699
		L201.555,251.304z"/>
	<path id="XMLID_43_" style="fill:#97BE59;" d="M232.676,247.191l32.351,21.736c0,0-2.673,8.4-4.389,12.528
		c-1.35,3.249-3.215,5.891-1.106,10.152l1.175,2.374c2.109,4.261,19.951-0.269,19.951-0.269l4.415-24.35l-26.222-35.126
		L232.676,247.191z"/>
	<path id="XMLID_42_" style="fill:#A4C867;" d="M133.951,231.1l9.452,37.683c0,0-7.585,4.436-11.609,6.349
		c-3.168,1.505-6.312,2.217-7.594,6.78l-0.714,2.542c-1.282,4.562,14.953,13.114,14.953,13.114l19.518-15.085l4.021-43.508
		L133.951,231.1z"/>
	<path id="XMLID_41_" style="fill:#A4C867;" d="M162.79,243.246l16.87,34.997c0,0-6.532,5.877-10.087,8.563
		c-2.798,2.114-5.734,3.447-6.067,8.174l-0.186,2.634c-0.334,4.727,17.294,9.822,17.294,9.822l16.068-18.717l-4.852-43.424
		L162.79,243.246z"/>
	<path id="XMLID_900_" style="fill:#A4C867;" d="M357.171,238.798c-20.841,2.062-73.745-11.184-86.926-20.146
		c-10.212-6.95-19.082-15.861-28.79-23.595c-17.456-13.928-35.376-27.229-57.229-33.569c-8.041-2.328-16.376-4.101-24.7-4.926
		c-8.788-0.879-45.908-11.746-55.762-22.238c-9.8-10.427-18.827-21.652-27.536-33.024c-8.034-10.484-21.561-29.617-23.325-32.262
		c-4.862-7.293-11.843-15.871-26.451-15.871S0,60.274,0,69.039S11.843,84.91,26.451,84.91c3.998,0,7.785-0.535,11.183-1.488
		c15.396,22.215,51.082,67.347,62.056,77.733c6.565,6.204,18.715,33.125,24.709,57.735c20.103,82.528,192.146,28.99,236.139,21.706
		c0.027-0.559,0.041-1.104,0.065-1.65C359.447,238.89,358.302,238.693,357.171,238.798z"/>
	<path id="XMLID_901_" style="fill:#97BE59;" d="M191.83,245.294l-13.48-0.951v31.18l1.311,2.719c0,0-0.512,0.46-1.311,1.168v27.315
		c1.373,0.451,2.265,0.709,2.265,0.709l16.068-18.717L191.83,245.294z"/>
	<path id="XMLID_902_" style="fill:#97BE59;" d="M357.171,238.799c-20.841,2.062-73.745-11.184-86.926-20.146
		c-10.212-6.95-19.082-15.861-28.79-23.595c-17.456-13.928-35.376-27.229-57.229-33.569c-1.943-0.563-3.903-1.091-5.876-1.583
		v101.889c60.303,10.928,151.797-16.168,182.189-21.2c0.027-0.559,0.041-1.104,0.065-1.65
		C359.447,238.89,358.302,238.693,357.171,238.799z"/>
	<circle id="XMLID_37_" style="fill:#F6D563;" cx="211.406" cy="225.878" r="10"/>
	<circle id="XMLID_36_" style="fill:#FFE477;" cx="148.352" cy="220.957" r="10"/>
	<circle id="XMLID_35_" style="fill:#FFE477;" cx="181.309" cy="245.733" r="10"/>
	<circle id="XMLID_34_" style="fill:#F6D563;" cx="186.43" cy="220.757" r="5"/>
	<circle id="XMLID_33_" style="fill:#FFE477;" cx="163.351" cy="200.737" r="5"/>
	<path id="XMLID_903_" style="fill:#F6D563;" d="M185.2,236.521c-2.262-0.955-4.676-1.011-6.851-0.335v19.098
		c4.853,1.51,10.153-0.88,12.172-5.66C192.67,244.536,190.288,238.669,185.2,236.521z"/>
	<path id="XMLID_904_" d="M32.254,64.868c-3.309,0-6,2.691-6,6s2.691,6,6,6s6-2.691,6-6S35.562,64.868,32.254,64.868z"/>
</g>
<g>
</g>
<g>
</g>
<g>
</g>
<g>
</g>
<g>
</g>
<g>
</g>
<g>
</g>
<g>
</g>
<g>
</g>
<g>
</g>
<g>
</g>
<g>
</g>
<g>
</g>
<g>
</g>
<g>
</g>
</svg>
