<?xml version="1.0" encoding="iso-8859-1"?>
<!-- Generator: Adobe Illustrator 19.0.0, SVG Export Plug-In . SVG Version: 6.00 Build 0)  -->
<svg version="1.1" id="Capa_1" xmlns="http://www.w3.org/2000/svg" xmlns:xlink="http://www.w3.org/1999/xlink" x="0px" y="0px"
	 viewBox="0 0 376.697 376.697" style="enable-background:new 0 0 376.697 376.697;" xml:space="preserve">
<g id="XMLID_28_">
	<g id="XMLID_29_">
		<path id="XMLID_30_" style="fill:#D570A7;" d="M142.029,133.088c0-19.618,48.008-63.198,48.008-63.198s48.006,43.58,48.006,63.198
			C238.043,138.907,142.029,138.894,142.029,133.088z"/>
		<path id="XMLID_31_" style="fill:#D05B9C;" d="M190.037,69.89L190.037,69.89l-0.001,67.557c24.003,0.002,48.007-1.45,48.007-4.359
			C238.043,113.47,190.037,69.89,190.037,69.89z"/>
	</g>
	<path id="XMLID_45_" style="fill:#D05B9C;" d="M217.545,127.686c8.665-12.89,59.456-20.319,59.456-20.319
		s12.293,49.837,3.628,62.727C278.059,173.917,214.981,131.5,217.545,127.686z"/>
	<path id="XMLID_44_" style="fill:#D05B9C;" d="M260.727,157.165c8.078-8.078,45.793-6.255,45.793-6.255s1.823,37.714-6.256,45.793
		C297.869,199.098,258.337,159.555,260.727,157.165z"/>
	<path id="XMLID_43_" style="fill:#D570A7;" d="M117.201,150.769c-8.078-8.078-45.793-6.255-45.793-6.255
		s-1.823,37.714,6.256,45.793C80.059,192.703,119.591,153.16,117.201,150.769z"/>
	<path id="XMLID_42_" style="fill:#D570A7;" d="M164.838,126.316c-9.057-12.617-60.054-18.48-60.054-18.48
		s-10.753,50.192-1.696,62.809C105.775,174.387,167.519,130.05,164.838,126.316z"/>
	<path id="XMLID_41_" style="fill:#D570A7;" d="M233.468,306.589h-4.701c-8.437,0-15.277-6.84-15.277-15.277V243.61h35.255v47.702
		C248.745,299.749,241.905,306.589,233.468,306.589z"/>
	<path id="XMLID_40_" style="fill:#D570A7;" d="M273.071,301.328h-4.701c-8.437,0-15.277-6.84-15.277-15.277v-47.702h35.255v47.702
		C288.349,294.488,281.509,301.328,273.071,301.328z"/>
	<path id="XMLID_39_" style="fill:#DA88B4;" d="M126.35,306.218l-4.521-1.288c-8.114-2.312-12.818-10.765-10.505-18.879
		l13.074-45.875l33.905,9.662l-13.074,45.875C142.917,303.827,134.464,308.53,126.35,306.218z"/>
	<path id="XMLID_38_" style="fill:#DA88B4;" d="M173.579,306.589h-4.701c-8.437,0-15.277-6.84-15.277-15.277V243.61h35.255v47.702
		C188.856,299.749,182.017,306.589,173.579,306.589z"/>
	<path id="XMLID_37_" style="fill:#DA88B4;" d="M376.697,166.807c-88.333,48.667-93.667-16.333-150-40
		c-102.646-43.123-101,61.667-170,60c-47.486-1.147-67.661,36.042-50.844,59.756c9.726,13.714,29.138,14.189,40,10.244
		c59.667-21.667,80.285,29.344,90.844,20c9.061-8.019,39.833,5.133,54.963,5.133c4.95,0,54.049-10.8,55.037-25.133
		C305.413,242.201,352.656,207.586,376.697,166.807L376.697,166.807z"/>
	<path id="XMLID_71_" d="M34.611,216.807c-3.309,0-6,2.691-6,6s2.691,6,6,6s6-2.691,6-6S37.919,216.807,34.611,216.807z"/>
	<circle id="XMLID_85_" style="fill:#ABD1AD;" cx="185.036" cy="143.349" r="15"/>
	<circle id="XMLID_86_" style="fill:#ABD1AD;" cx="170.036" cy="168.349" r="10"/>
	<path id="XMLID_87_" style="fill:#D570A7;" d="M226.697,126.807c-14.022-5.891-26.086-9.005-36.661-10.024v165.109
		c0.558,0.03,1.102,0.049,1.624,0.049c4.95,0,55.701-9.258,56.689-23.591c58.716-14.606,104.307-50.763,128.349-91.542
		C288.364,215.473,283.03,150.473,226.697,126.807z"/>
	<circle id="XMLID_88_" style="fill:#98C79C;" cx="220.036" cy="158.349" r="10"/>
	<path id="XMLID_89_" style="fill:#98C79C;" d="M190.036,129.22v28.256c5.822-2.061,10-7.6,10-14.128
		C200.036,136.82,195.858,131.282,190.036,129.22z"/>
</g>
<g>
</g>
<g>
</g>
<g>
</g>
<g>
</g>
<g>
</g>
<g>
</g>
<g>
</g>
<g>
</g>
<g>
</g>
<g>
</g>
<g>
</g>
<g>
</g>
<g>
</g>
<g>
</g>
<g>
</g>
</svg>
