<?xml version="1.0" encoding="iso-8859-1"?>
<!-- Generator: Adobe Illustrator 19.0.0, SVG Export Plug-In . SVG Version: 6.00 Build 0)  -->
<svg version="1.1" id="Capa_1" xmlns="http://www.w3.org/2000/svg" xmlns:xlink="http://www.w3.org/1999/xlink" x="0px" y="0px"
	 viewBox="0 0 347.465 347.465" style="enable-background:new 0 0 347.465 347.465;" xml:space="preserve">
<g id="XMLID_845_">
	<path id="XMLID_54_" style="fill:#97BE59;" d="M247.673,308.298l3.322-0.947c5.964-1.7,9.42-7.912,7.721-13.875l-13.283-58.541
		l-24.919,7.101l13.283,58.541C235.497,306.541,241.709,309.998,247.673,308.298z"/>
	<path id="XMLID_53_" style="fill:#97BE59;" d="M212.962,308.571h3.455c6.201,0,11.228-5.027,11.228-11.228l-3.674-59.884h-25.911
		l3.674,59.884C201.734,303.545,206.761,308.571,212.962,308.571z"/>
	<circle id="XMLID_846_" style="fill:#91B650;" cx="261.944" cy="139.982" r="20"/>
	<circle id="XMLID_847_" style="fill:#91B650;" cx="281.944" cy="159.982" r="20"/>
	<circle id="XMLID_848_" style="fill:#9BC35C;" cx="121.944" cy="159.982" r="20"/>
	<circle id="XMLID_850_" style="fill:#91B650;" cx="231.944" cy="119.982" r="20"/>
	<circle id="XMLID_851_" style="fill:#91B650;" cx="201.944" cy="109.982" r="20"/>
	<circle id="XMLID_853_" style="fill:#9BC35C;" cx="171.944" cy="119.982" r="20"/>
	<circle id="XMLID_854_" style="fill:#9BC35C;" cx="141.944" cy="139.982" r="20"/>
	<path id="XMLID_855_" style="fill:#A4C867;" d="M311.944,167.425c0,0-94.333-79.11-170-27.443
		c-34.938,23.857-28.771,4.511-50.836,8.041c28.526-49.385,3.685-24.377,4.359-25.27c0.71-0.94-23.724,27.613-0.448-31.62
		c4.854-12.352-1.034-5.994-18.882,6.593c-11.23,7.919,12.658-34.534,14.656-46.655c1.999-12.121-19.316,23.202-30.561,31.439
		c-7.503,5.496,6.275-38.537,5.585-43.488c-0.69-4.951-23.427,54.8-29.683,93.44c-1.986,12.269-4.236,25.769-10.747,39.783
		c-1.575,3.389-5.88,5-9.648,8.876c-9.533,9.807-2.519,16.362,1.032,18.773c-6.842,19.121-24.268,22.398-13.161,30.088
		c13,9,0.537,38.499,25.183,32.636c11.343-2.698,44.855-29.384,44.855-29.384s5.563-4.636,18.542,0
		c12.979,4.635,24.916,43.623,95.989,35.497c1.901-0.217,3.762-0.448,5.604-0.683c30.16,8.668,77.336,16.205,121.89,9.134
		C359.348,270.25,357.944,198.982,311.944,167.425z M311.099,245.889c-6.089,13.612-39.708,15.087-72.177,13.202
		c39.111-11.223,57.204-27.821,68.116-42.178C312.93,224.791,316.128,234.646,311.099,245.889z"/>
	<path id="XMLID_42_" style="fill:#A4C867;" d="M114.194,308.298l-3.322-0.947c-5.964-1.7-9.42-7.912-7.721-13.875l13.283-58.541
		l24.919,7.101l-13.283,58.541C126.37,306.541,120.158,309.998,114.194,308.298z"/>
	<path id="XMLID_41_" style="fill:#A4C867;" d="M148.906,308.571h-3.455c-6.201,0-11.228-5.027-11.228-11.228l3.674-59.884h25.911
		l-3.674,59.884C160.134,303.545,155.107,308.571,148.906,308.571z"/>
	<circle id="XMLID_858_" cx="41.033" cy="201.232" r="9.249"/>
	<path id="XMLID_859_" style="fill:#91B650;" d="M173.612,100.066v39.832c10.263-0.849,18.332-9.433,18.332-19.916
		S183.875,100.916,173.612,100.066z"/>
	<path id="XMLID_860_" style="fill:#97BE59;" d="M311.944,167.425c0,0-70.389-59.014-138.332-41.79v144.146
		c4.563-0.124,9.405-0.459,14.569-1.05c1.901-0.217,3.762-0.448,5.604-0.683c30.16,8.668,77.336,16.205,121.89,9.134
		C359.349,270.25,357.944,198.982,311.944,167.425z M311.099,245.889c-6.089,13.612-39.708,15.087-72.177,13.202
		c39.111-11.223,57.204-27.821,68.116-42.178C312.93,224.791,316.128,234.646,311.099,245.889z"/>
	<circle id="XMLID_863_" style="fill:#F6D563;" cx="188.148" cy="226.955" r="13.027"/>
	<circle id="XMLID_864_" style="fill:#F6D563;" cx="235.584" cy="161.955" r="8.027"/>
	<circle id="XMLID_865_" style="fill:#F6D563;" cx="202.883" cy="176.496" r="11.513"/>
	<circle id="XMLID_866_" style="fill:#F6D563;" cx="227.857" cy="205.738" r="15.754"/>
	<circle id="XMLID_867_" style="fill:#FFE477;" cx="157.857" cy="180.74" r="15.754"/>
</g>
<g>
</g>
<g>
</g>
<g>
</g>
<g>
</g>
<g>
</g>
<g>
</g>
<g>
</g>
<g>
</g>
<g>
</g>
<g>
</g>
<g>
</g>
<g>
</g>
<g>
</g>
<g>
</g>
<g>
</g>
</svg>
